<?xml version="1.0" encoding="utf-8"?>
<!-- Generator: Adobe Illustrator 21.1.0, SVG Export Plug-In . SVG Version: 6.00 Build 0)  -->
<svg version="1.1" xmlns="http://www.w3.org/2000/svg" xmlns:xlink="http://www.w3.org/1999/xlink" x="0px" y="0px"
	 viewBox="0 0 40 36" style="enable-background:new 0 0 40 36;" xml:space="preserve">
<style type="text/css">
	.st0{display:none;}
	.st1{display:inline;}
</style>
<g id="Capa_1" class="st0">
	<g class="st1">
		<g>
			<path d="M31.6,27.9c0.5,0.5,0.5,1.3,0,1.8c-0.5,0.5-1.3,0.5-1.8,0l-6.2-6.2c-0.2-0.2-0.7-0.3-1-0.1c0,0-0.2,0.1-0.5,0.3
				c-1.4,0.8-3,1.2-4.7,1.2C12.2,25,8,20.7,8,15.5S12.2,6,17.5,6s9.5,4.2,9.5,9.5c0,1.7-0.5,3.3-1.3,4.7c-0.2,0.4-0.3,0.5-0.3,0.5
				c-0.2,0.3-0.2,0.7,0.1,1L31.6,27.9z M17.5,22.4c3.8,0,7-3.1,7-7s-3.1-7-7-7s-7,3.1-7,7S13.6,22.4,17.5,22.4z"/>
		</g>
	</g>
</g>
<g id="Capa_3" class="st0">
	<g class="st1">
		<path d="M20,17.8c3.6,0,6.5-2.9,6.5-6.5c0-3.6-2.9-6.5-6.5-6.5c-3.6,0-6.5,2.9-6.5,6.5C13.5,14.9,16.4,17.8,20,17.8z M20,6.8
			c2.5,0,4.5,2,4.5,4.5c0,2.5-2,4.5-4.5,4.5c-2.5,0-4.5-2-4.5-4.5C15.5,8.8,17.5,6.8,20,6.8L20,6.8z"/>
		<path d="M9.7,31.2c0-5.7,4.6-10.3,10.3-10.3c5.7,0,10.3,4.6,10.3,10.3h1.9C32.2,24.4,26.7,19,20,19c-3.2,0-6.3,1.3-8.6,3.6
			c-2.3,2.3-3.6,5.4-3.6,8.6H9.7z"/>
	</g>
</g>
<g id="Capa_2">
	<g>
		<g>
			<path d="M32.5,33H7.5c-0.5,0-0.9-0.4-0.9-0.9V12.2c0-0.5,0.4-0.9,0.9-0.9h25.1c0.5,0,0.9,0.4,0.9,0.9v19.9
				C33.4,32.6,33,33,32.5,33z M8.3,31.2h23.4V13H8.3V31.2z"/>
		</g>
		<g>
			<path d="M25.7,12.4c-0.5,0-0.9-0.4-0.9-0.9v-2c0-2.7-2.2-4.8-4.8-4.8s-4.8,2.2-4.8,4.8v2c0,0.5-0.4,0.9-0.9,0.9s-0.9-0.4-0.9-0.9
				v-2C13.4,6,16.4,3,20,3s6.6,2.9,6.6,6.6v2C26.6,12.1,26.2,12.4,25.7,12.4z"/>
		</g>
	</g>
</g>
</svg>
