<?xml version="1.0" encoding="utf-8"?>
<!-- Generator: Adobe Illustrator 21.1.0, SVG Export Plug-In . SVG Version: 6.00 Build 0)  -->
<svg version="1.1" id="Capa_1" xmlns="http://www.w3.org/2000/svg" xmlns:xlink="http://www.w3.org/1999/xlink" x="0px" y="0px"
	 viewBox="0 0 40 40" style="enable-background:new 0 0 40 40;" xml:space="preserve">
<g>
	<g id="jm2Bmn_3_">
		<g>
			<path d="M20,34.5c-2.6-0.1-5-0.1-7.4-0.2c-4.3-0.3-7.6-3.5-7.8-7.8c-0.2-5-0.1-10,0-15c0.1-3.9,3-7,6.9-7.5
				c1.8-0.3,3.6-0.3,5.4-0.3c3.4,0,6.9,0,10.3,0.2c4.3,0.2,7.7,3.4,7.8,7.8c0.2,5,0.2,10.1,0,15.2c-0.1,4.1-3.5,7.3-7.8,7.6
				C24.9,34.4,22.3,34.4,20,34.5z M19.9,31.8c0-0.1,0-0.1,0-0.2c2.2,0,4.4,0,6.6,0c0.3,0,0.7-0.1,1-0.1c2.9-0.4,5-2.3,5-5.2
				c0.1-4.8,0.1-9.6,0-14.4c-0.1-2.8-1.7-4.6-4.3-5.3c-0.7-0.2-1.5-0.2-2.2-0.2c-4.4,0-8.7-0.1-13.1,0.1c-3.1,0.1-5.3,2.2-5.4,5.4
				c-0.2,4.8-0.2,9.6,0,14.4c0.1,3.1,2,5,5.1,5.3C15,31.7,17.5,31.7,19.9,31.8z"/>
			<path d="M20,11.1c4.4,0,7.9,3.5,7.9,8c0,4.3-3.5,7.8-7.9,7.8c-4.5,0-7.9-3.5-7.9-8.1C12.1,14.5,15.7,11,20,11.1z M14.8,18.9
				c0,2.9,2.3,5.2,5.2,5.2c2.8,0,5.2-2.4,5.2-5.1c0-2.9-2.4-5.2-5.2-5.2C17.2,13.8,14.8,16.1,14.8,18.9z"/>
			<path d="M26.4,10.7c0-1,0.8-1.8,1.9-1.8c1,0,1.8,0.8,1.8,1.8c0,1-0.8,1.8-1.8,1.8C27.2,12.5,26.4,11.8,26.4,10.7z"/>
		</g>
	</g>
</g>
</svg>
