<?xml version="1.0" encoding="utf-8"?>
<!-- Generator: Adobe Illustrator 21.1.0, SVG Export Plug-In . SVG Version: 6.00 Build 0)  -->
<svg version="1.1" id="Capa_1" xmlns="http://www.w3.org/2000/svg" xmlns:xlink="http://www.w3.org/1999/xlink" x="0px" y="0px"
	 viewBox="0 0 38 38" style="enable-background:new 0 0 38 38;" xml:space="preserve">
<g>
	<g>
		<path d="M29.1,9.2h-3.4h-1.4l-1-2.3l0,0c-0.2-0.5-0.6-0.9-1-1.2c-0.4-0.3-1-0.5-1.5-0.5H17c-0.6,0-1.1,0.2-1.5,0.5
			C15,6,14.7,6.4,14.5,7l-0.8,2.2l0,0h-1.3H8.9c-0.7,0-1.2,0.6-1.2,1.2c0,0.7,0.6,1.2,1.2,1.2h1.2v18.9c0,0.6,0.2,1.1,0.6,1.5
			c0.4,0.4,0.9,0.6,1.5,0.6h13.3c0.6,0,1.1-0.2,1.5-0.6c0.4-0.4,0.6-0.9,0.6-1.5V11.7h1.2c0.7,0,1.2-0.6,1.2-1.2
			C30.3,9.8,29.8,9.2,29.1,9.2z M16.2,7.6c0-0.1,0.2-0.3,0.3-0.4c0.2-0.1,0.4-0.2,0.5-0.2h3.7c0.1,0,0.3,0.1,0.5,0.2
			c0.2,0.1,0.3,0.3,0.4,0.4l0,0l0.7,1.6h-6.6L16.2,7.6z M26,30.6c0,0.1,0,0.2-0.1,0.2c-0.1,0.1-0.1,0.1-0.2,0.1H12.3
			c-0.1,0-0.2,0-0.2-0.1c-0.1-0.1-0.1-0.1-0.1-0.2V11.7H26V30.6z"/>
		<path d="M14.8,28.8c0.5,0,0.9-0.4,0.9-0.9V14.5c0-0.5-0.4-0.9-0.9-0.9s-0.9,0.4-0.9,0.9v13.3C13.9,28.3,14.3,28.8,14.8,28.8z"/>
		<path d="M22.9,28.8c0.5,0,0.9-0.4,0.9-0.9V14.5c0-0.5-0.4-0.9-0.9-0.9c-0.5,0-0.9,0.4-0.9,0.9v13.3C21.9,28.3,22.4,28.8,22.9,28.8
			z"/>
		<path d="M18.8,28.8c0.5,0,0.9-0.4,0.9-0.9V14.5c0-0.5-0.4-0.9-0.9-0.9c-0.5,0-0.9,0.4-0.9,0.9v13.3C17.9,28.3,18.3,28.8,18.8,28.8
			z"/>
	</g>
</g>
</svg>
